# xmcd CD database file
#
# Track frame offsets:
#	150
#	14986
#	113271
#	115556
#	137077
#	137498
#	154446
#	176279
#	193422
#	204924
#	208761
#	218613
#	235645
#	266670
#
# Disc length: 4048 seconds
#
# Revision: 0
# Processed by: cddbd v1.5.2PL0 Copyright (c) Steve Scherf et al.
# Submitted via: CDex 1.51
#
DISCID=c40fce0e
DTITLE=AD - Bodysuit
DYEAR=2006
DGENRE=Jazz
TTITLE0=Noize
TTITLE1=You (let's talk about sex)
TTITLE2=Noize2 (asian fuckin')
TTITLE3=Sinatrawalk
TTITLE4=Noize3 (asian fuckin') 2
TTITLE5=Ella Guru
TTITLE6=(i wanna be) Your Strange Fruit
TTITLE7=Noize4 (silence)
TTITLE8=Sun
TTITLE9=Yatzu Fuckinu
TTITLE10=I'm Not Your Dog
TTITLE11=Ask Body
TTITLE12=Fuck You Bob
TTITLE13=Clear Pure Sex
EXTD=YEAR: 2006
EXTT0=
EXTT1=
EXTT2=
EXTT3=
EXTT4=
EXTT5=
EXTT6=
EXTT7=
EXTT8=
EXTT9=
EXTT10=
EXTT11=
EXTT12=
EXTT13=
PLAYORDER=
